# Blender 4.3.2
# www.blender.org
mtllib myessentialservices_exit.mtl
o Cube
v 0.259317 0.375735 -0.063598
v 0.259317 0.119778 -0.063598
v 0.259317 0.375735 0.064380
v 0.259317 0.119778 0.064380
v -0.252596 0.375735 -0.063598
v -0.252596 0.119778 -0.063598
v -0.252596 0.375735 0.064380
v -0.252596 0.119778 0.064380
vn -0.0000 1.0000 -0.0000
vn -0.0000 -0.0000 1.0000
vn -1.0000 -0.0000 -0.0000
vn -0.0000 -1.0000 -0.0000
vn 1.0000 -0.0000 -0.0000
vn -0.0000 -0.0000 -1.0000
vt 0.250000 0.000000
vt 0.250000 0.250000
vt 0.000000 0.250000
vt 0.000000 0.000000
vt 0.250000 0.500000
vt 0.000000 0.500000
vt 0.000000 0.250000
vt 0.250000 0.250000
vt 0.250000 0.250000
vt 0.000000 0.250000
vt 0.000000 0.000000
vt 0.250000 0.000000
vt 0.250000 0.250000
vt 0.250000 0.500000
vt 0.000000 0.500000
vt 0.000000 0.250000
vt 0.250000 0.750000
vt 0.000000 0.750000
vt 0.000000 0.500000
vt 0.250000 0.500000
vt 0.250000 0.750000
vt 0.000000 0.750000
vt 0.000000 0.500000
vt 0.250000 0.500000
s 0
usemtl Material
f 1/1/1 5/2/1 7/3/1 3/4/1
f 4/5/2 3/6/2 7/7/2 8/8/2
f 8/9/3 7/10/3 5/11/3 6/12/3
f 6/13/4 2/14/4 4/15/4 8/16/4
f 2/17/5 1/18/5 3/19/5 4/20/5
f 6/21/6 5/22/6 1/23/6 2/24/6
o Cube.001
v 0.067350 0.500199 -0.038002
v 0.067350 0.372221 -0.038002
v 0.067350 0.500199 0.038785
v 0.067350 0.372221 0.038785
v -0.060629 0.500199 -0.038002
v -0.060629 0.372221 -0.038002
v -0.060629 0.500199 0.038785
v -0.060629 0.372221 0.038785
vn -0.0000 1.0000 -0.0000
vn -0.0000 -0.0000 1.0000
vn -1.0000 -0.0000 -0.0000
vn -0.0000 -1.0000 -0.0000
vn 1.0000 -0.0000 -0.0000
vn -0.0000 -0.0000 -1.0000
vt 0.250000 0.000000
vt 0.250000 0.250000
vt -0.000000 0.250000
vt 0.000000 0.000000
vt 0.250000 0.500000
vt -0.000000 0.500000
vt -0.000000 0.250000
vt 0.250000 0.250000
vt 0.250000 0.750000
vt 0.000000 0.750000
vt 0.000000 0.500000
vt 0.250000 0.500000
vt 0.250000 0.750000
vt 0.250000 1.000000
vt -0.000000 1.000000
vt 0.000000 0.750000
vt 0.000000 1.000000
vt 0.000000 0.750000
vt 0.250000 0.750000
vt 0.250000 1.000000
vt -0.000000 1.000000
vt 0.000000 0.750000
vt 0.250000 0.750000
s 0
usemtl Material
f 9/25/7 13/26/7 15/27/7 11/28/7
f 12/29/8 11/30/8 15/31/8 16/32/8
f 16/33/9 15/34/9 13/35/9 14/36/9
f 14/37/10 10/38/10 12/39/10 16/40/10
f 10/38/11 9/41/11 11/42/11 12/43/11
f 14/44/12 13/45/12 9/46/12 10/47/12
o Text
v -0.223750 0.315536 -0.068137
v -0.101235 0.315536 -0.068137
v -0.101235 0.296622 -0.068137
v -0.151961 0.296622 -0.068137
v -0.151961 0.168948 -0.068137
v -0.173025 0.168948 -0.068137
v -0.173025 0.296622 -0.068137
v -0.223750 0.296622 -0.068137
v -0.081246 0.315536 -0.068137
v -0.060182 0.315536 -0.068137
v -0.060182 0.168948 -0.068137
v -0.081246 0.168948 -0.068137
v -0.039333 0.315536 -0.068137
v -0.013970 0.315536 -0.068137
v 0.031812 0.259652 -0.068137
v 0.077809 0.315537 -0.068137
v 0.103386 0.315537 -0.068137
v 0.044708 0.244822 -0.068137
v 0.107900 0.168948 -0.068137
v 0.082322 0.168948 -0.068137
v 0.031812 0.229561 -0.068137
v -0.018054 0.168948 -0.068137
v -0.043417 0.168948 -0.068137
v 0.019130 0.244822 -0.068137
v 0.116498 0.315537 -0.068137
v 0.199679 0.315537 -0.068137
v 0.199679 0.168948 -0.068137
v 0.114563 0.168948 -0.068137
v 0.114563 0.187863 -0.068137
v 0.178615 0.187863 -0.068137
v 0.178615 0.233430 -0.068137
v 0.118647 0.233430 -0.068137
v 0.118647 0.252345 -0.068137
v 0.178615 0.252345 -0.068137
v 0.178615 0.296622 -0.068137
v 0.116498 0.296622 -0.068137
vn -0.0000 -0.0000 -1.0000
vt 0.828125 0.450875
vt 0.839125 0.379625
vt 0.839125 0.450875
vt 0.828125 0.379625
vt 0.828125 0.450875
vt 0.828125 0.220125
vt 0.840375 0.294375
vt 0.828125 0.294375
vt 0.869875 0.294375
vt 0.840375 0.220125
vt 0.840375 0.379625
vt 0.828125 0.379625
vt 0.872250 0.098125
vt 0.913375 0.117375
vt 0.913375 0.132250
vt 0.880875 0.090625
vt 0.913375 0.049250
vt 0.913375 0.064000
vt 0.872250 0.083250
vt 0.828125 0.134875
vt 0.863375 0.090625
vt 0.828125 0.046875
vt 0.828125 0.120000
vt 0.828125 0.061625
vt 0.828125 0.134875
vt 0.840375 0.209125
vt 0.828125 0.220125
vt 0.876500 0.220125
vt 0.876500 0.209125
vt 0.840375 0.183375
vt 0.840375 0.172375
vt 0.875250 0.183375
vt 0.875250 0.172375
vt 0.840375 0.145875
vt 0.877625 0.145875
vt 0.877625 0.134875
s 0
f 19/48/13 17/49/13 18/50/13
f 19/48/13 24/51/13 17/49/13
f 20/52/13 24/52/13 19/52/13
f 21/53/13 23/54/13 20/55/13
f 23/54/13 24/56/13 20/55/13
f 21/53/13 22/57/13 23/54/13
f 27/55/13 25/58/13 26/59/13
f 27/55/13 28/54/13 25/58/13
f 34/60/13 32/61/13 33/62/13
f 34/60/13 31/63/13 32/61/13
f 31/63/13 29/64/13 30/65/13
f 31/63/13 40/66/13 29/64/13
f 34/60/13 40/66/13 31/63/13
f 35/67/13 40/66/13 34/60/13
f 35/67/13 37/68/13 40/66/13
f 37/68/13 39/69/13 40/66/13
f 35/67/13 36/70/13 37/68/13
f 38/71/13 39/69/13 37/68/13
f 43/72/13 51/73/13 42/74/13
f 51/73/13 41/75/13 42/74/13
f 51/73/13 52/76/13 41/75/13
f 43/72/13 50/77/13 51/73/13
f 43/72/13 47/78/13 50/77/13
f 47/78/13 49/79/13 50/77/13
f 47/78/13 48/80/13 49/79/13
f 43/72/13 46/81/13 47/78/13
f 43/72/13 45/82/13 46/81/13
f 43/72/13 44/83/13 45/82/13
