# Blender 4.3.2
# www.blender.org
mtllib myessentialservices_chalkboard.mtl
o Cube
v 0.491869 0.500000 0.432647
v 0.491869 -0.500000 0.432647
v 0.491869 0.500000 0.492647
v 0.491869 -0.500000 0.492647
v -1.508131 0.500000 0.432647
v -1.508131 -0.500000 0.432647
v -1.508131 0.500000 0.492647
v -1.508131 -0.500000 0.492647
v -1.464314 -0.478091 0.432647
v -1.464314 0.478091 0.432647
v 0.448052 0.478091 0.432647
v 0.448052 -0.478091 0.432647
v -1.464314 0.478091 0.462269
v -1.464314 -0.478091 0.462269
v 0.448052 -0.478091 0.462269
v 0.448052 0.478091 0.462269
vn -0.0000 1.0000 -0.0000
vn -0.0000 -0.0000 1.0000
vn -1.0000 -0.0000 -0.0000
vn -0.0000 -1.0000 -0.0000
vn 1.0000 -0.0000 -0.0000
vn -0.0000 -0.0000 -1.0000
vt 0.308594 0.257813
vt 0.308594 0.507812
vt 0.058594 0.507812
vt 0.058594 0.257812
vt 0.281250 0.750000
vt 0.031250 0.750000
vt 0.031250 0.500000
vt 0.281250 0.500000
vt 0.308594 0.757812
vt 0.058594 0.757812
vt 0.058594 0.507812
vt 0.308594 0.507812
vt 0.250000 0.750000
vt 0.250000 1.000000
vt -0.000000 1.000000
vt 0.000000 0.750000
vt 0.253906 0.250000
vt 0.003906 0.250000
vt 0.003906 0.000000
vt 0.253906 0.000000
vt 0.174206 0.383577
vt 0.174206 0.622623
vt 0.050781 0.622623
vt 0.050781 0.383577
vt 0.281250 1.000000
vt 0.031250 1.000000
vt 0.036727 0.994523
vt 0.275773 0.994523
vt 0.031250 0.750000
vt 0.036727 0.755477
vt 0.281250 0.750000
vt 0.275773 0.755477
vt 0.977327 0.977327
vt 0.570312 0.977327
vt 0.570312 0.031250
vt 0.977327 0.031250
vt 0.058594 0.996858
vt 0.058594 0.757812
vt 0.182018 0.757812
vt 0.182018 0.996858
vt 0.305443 0.757812
vt 0.305443 0.996858
vt 0.174206 0.622623
vt 0.174206 0.861668
vt 0.050781 0.861668
vt 0.050781 0.622623
s 0
usemtl Material
f 1/1/1 5/2/1 7/3/1 3/4/1
f 4/5/2 3/6/2 7/7/2 8/8/2
f 8/9/3 7/10/3 5/11/3 6/12/3
f 6/13/4 2/14/4 4/15/4 8/16/4
f 2/17/5 1/18/5 3/19/5 4/20/5
f 10/21/4 11/22/4 16/23/4 13/24/4
f 6/25/6 5/26/6 10/27/6 9/28/6
f 5/26/6 1/29/6 11/30/6 10/27/6
f 1/29/6 2/31/6 12/32/6 11/30/6
f 2/31/6 6/25/6 9/28/6 12/32/6
f 14/33/6 13/34/6 16/35/6 15/36/6
f 9/37/5 10/38/5 13/39/5 14/40/5
f 11/41/3 12/42/3 15/40/3 16/39/3
f 12/43/1 9/44/1 14/45/1 15/46/1
o Cube.001
v -1.508131 -0.496526 0.495635
v -1.508131 -0.456526 0.495635
v -1.508131 -0.496526 0.355635
v -1.508131 -0.456526 0.355635
v 0.491869 -0.496526 0.495635
v 0.491869 -0.456526 0.495635
v 0.491869 -0.496526 0.355635
v 0.491869 -0.456526 0.355635
vn -1.0000 -0.0000 -0.0000
vn -0.0000 -0.0000 -1.0000
vn 1.0000 -0.0000 -0.0000
vn -0.0000 -0.0000 1.0000
vn -0.0000 -1.0000 -0.0000
vn -0.0000 1.0000 -0.0000
vt 0.250000 0.250000
vt 0.000000 0.250000
vt 0.000000 0.000000
vt 0.250000 0.000000
vt 0.250000 0.500000
vt 0.000000 0.500000
vt 0.000000 0.250000
vt 0.250000 0.250000
vt 0.281250 0.250000
vt 0.031250 0.250000
vt 0.031250 0.000000
vt 0.281250 0.000000
vt 0.281250 0.500000
vt 0.031250 0.500000
vt 0.031250 0.250000
vt 0.281250 0.250000
vt 0.250000 0.500000
vt 0.250000 0.750000
vt 0.000000 0.750000
vt 0.000000 0.500000
vt 0.308594 0.007813
vt 0.308594 0.257812
vt 0.058594 0.257812
vt 0.058594 0.007813
s 0
f 17/47/7 18/48/7 20/49/7 19/50/7
f 19/51/8 20/52/8 24/53/8 23/54/8
f 23/55/9 24/56/9 22/57/9 21/58/9
f 21/59/10 22/60/10 18/61/10 17/62/10
f 19/63/11 23/64/11 21/65/11 17/66/11
f 24/67/12 20/68/12 18/69/12 22/70/12
