# Blender 4.3.2
# www.blender.org
mtllib myessentialservices_poster.mtl
o Cube
v 0.300000 0.500000 0.494311
v 0.300000 -0.500000 0.494311
v 0.300000 0.500000 0.496311
v 0.300000 -0.500000 0.496311
v -0.300000 0.500000 0.494311
v -0.300000 -0.500000 0.494311
v -0.300000 0.500000 0.496311
v -0.300000 -0.500000 0.496311
vn -0.0000 1.0000 -0.0000
vn -0.0000 -0.0000 1.0000
vn -1.0000 -0.0000 -0.0000
vn -0.0000 -1.0000 -0.0000
vn 1.0000 -0.0000 -0.0000
vn -0.0000 -0.0000 -1.0000
vt 0.333333 0.000000
vt 0.333333 0.333333
vt 0.000000 0.333333
vt 0.000000 0.000000
vt 0.333333 0.666667
vt 0.000000 0.666667
vt 0.000000 0.333333
vt 0.333333 0.333333
vt 0.338542 0.333333
vt 0.005208 0.333333
vt 0.005208 0.000000
vt 0.338542 0.000000
vt 0.338542 0.001302
vt 0.338542 0.334635
vt 0.005208 0.334635
vt 0.005208 0.001302
vt 0.333333 1.000000
vt 0.000000 1.000000
vt 0.000000 0.666667
vt 0.333333 0.666667
vt 0.987659 0.008464
vt 0.987659 0.994141
vt 0.374349 0.994141
vt 0.374349 0.008464
s 0
usemtl Material
f 1/1/1 5/2/1 7/3/1 3/4/1
f 4/5/2 3/6/2 7/7/2 8/8/2
f 8/9/3 7/10/3 5/11/3 6/12/3
f 6/13/4 2/14/4 4/15/4 8/16/4
f 2/17/5 1/18/5 3/19/5 4/20/5
f 6/21/6 5/22/6 1/23/6 2/24/6
