# Blender 4.3.2
# www.blender.org
mtllib myessentialservices_teacher_desk.mtl
o Cube
v 0.435468 0.367031 -0.500000
v 0.435468 -0.260437 -0.500000
v 0.466553 0.403297 0.500000
v 0.466553 -0.296703 0.500000
v -0.102362 0.367031 -0.500000
v -0.102362 -0.260437 -0.500000
v -0.133447 0.403297 0.500000
v -0.133447 -0.296703 0.500000
v 0.466553 -0.296703 -0.500000
v -0.133447 -0.296703 -0.500000
v 0.466553 0.403297 -0.500000
v -0.133447 0.403297 -0.500000
v 0.466553 0.200210 -0.500000
v -0.133447 0.200210 0.500000
v 0.466553 0.200210 0.500000
v -0.133447 0.200210 -0.500000
v 0.435468 0.184988 -0.500000
v -0.102362 0.184988 -0.500000
v -0.095430 0.358943 -0.470599
v 0.428535 0.358943 -0.470599
v 0.428535 0.193075 -0.470599
v -0.095430 0.193075 -0.470599
v -0.102362 0.367031 -0.470599
v 0.435468 0.367031 -0.470599
v 0.435468 0.184988 -0.470599
v -0.102362 0.184988 -0.470599
v -0.095430 0.358943 -0.501534
v 0.428535 0.358943 -0.501534
v 0.428535 0.193075 -0.501534
v -0.095430 0.193075 -0.501534
v 0.428828 -0.252691 -0.479009
v -0.095722 -0.252691 -0.479009
v 0.428828 0.177241 -0.479009
v -0.095722 0.177241 -0.479009
v 0.435468 -0.260437 -0.479009
v -0.102362 -0.260437 -0.479009
v 0.435468 0.184988 -0.479009
v -0.102362 0.184988 -0.479009
v 0.428828 -0.252691 -0.505967
v -0.095722 -0.252691 -0.505967
v 0.428828 0.177241 -0.505967
v -0.095722 0.177241 -0.505967
vn -0.0000 1.0000 -0.0000
vn -0.0000 -0.0000 1.0000
vn -1.0000 -0.0000 -0.0000
vn -0.0000 -1.0000 -0.0000
vn 1.0000 -0.0000 -0.0000
vn -0.0000 -0.0000 -1.0000
vt 0.143053 0.015625
vt 0.143053 0.146959
vt 0.011719 0.146959
vt 0.011719 0.015625
vt 0.049822 0.278293
vt 0.011719 0.278293
vt 0.011719 0.146959
vt 0.049822 0.146959
vt 0.181156 0.146959
vt 0.143053 0.146959
vt 0.143053 0.015625
vt 0.181156 0.015625
vt 0.274386 0.146959
vt 0.274386 0.278293
vt 0.143053 0.278293
vt 0.143053 0.146959
vt 0.049822 0.409626
vt 0.011719 0.409626
vt 0.011719 0.278293
vt 0.049822 0.278293
vt 0.827288 0.283633
vt 0.827288 0.249478
vt 0.831150 0.249478
vt 0.831150 0.283633
vt 0.398916 0.140155
vt 0.398916 0.022429
vt 0.405720 0.015625
vt 0.405720 0.146959
vt 0.315345 0.022429
vt 0.281191 0.022429
vt 0.274386 0.015625
vt 0.312489 0.015625
vt 0.315345 0.140155
vt 0.312489 0.146959
vt 0.281191 0.140155
vt 0.274386 0.146959
vt 0.987809 0.131753
vt 0.987809 0.249478
vt 0.985052 0.249478
vt 0.985052 0.131753
vt 0.143053 0.409626
vt 0.143053 0.278293
vt 0.274386 0.146959
vt 0.274386 0.015625
vt 0.143053 0.278293
vt 0.143053 0.146959
vt 0.839074 0.249478
vt 0.839074 0.280598
vt 0.835011 0.280598
vt 0.835011 0.249478
vt 0.981818 0.189153
vt 0.981818 0.306879
vt 0.977957 0.306879
vt 0.977957 0.189153
vt 0.970525 0.245262
vt 0.970525 0.362988
vt 0.966663 0.362988
vt 0.966663 0.245262
vt 0.835011 0.283633
vt 0.831150 0.283633
vt 0.831150 0.249478
vt 0.932572 0.364505
vt 0.932572 0.479195
vt 0.931055 0.480713
vt 0.931055 0.362987
vt 0.963692 0.364505
vt 0.965210 0.362987
vt 0.784135 0.205758
vt 0.815255 0.205758
vt 0.816772 0.207275
vt 0.782618 0.207275
vt 0.963692 0.479195
vt 0.965210 0.480713
vt 0.872331 0.975719
vt 0.841211 0.975719
vt 0.841211 0.861028
vt 0.872331 0.861028
vt 0.843136 0.249478
vt 0.843136 0.280598
vt 0.973894 0.303844
vt 0.973894 0.189153
vt 0.977957 0.189153
vt 0.977957 0.303844
vt 0.815191 0.321966
vt 0.815191 0.207275
vt 0.819254 0.207275
vt 0.819254 0.321966
vt 0.934961 0.138414
vt 0.934961 0.057750
vt 0.938502 0.057750
vt 0.938502 0.138414
vt 0.951881 0.057750
vt 0.951881 0.141320
vt 0.949124 0.141320
vt 0.949124 0.057750
vt 0.954637 0.057750
vt 0.954637 0.141320
vt 0.988115 0.189153
vt 0.988115 0.306879
vt 0.985359 0.306879
vt 0.985359 0.189153
vt 0.893557 0.248025
vt 0.893557 0.133206
vt 0.895011 0.131753
vt 0.895011 0.249478
vt 0.812893 0.133206
vt 0.811440 0.131753
vt 0.812893 0.248025
vt 0.811440 0.249478
vt 0.906250 0.857006
vt 0.825586 0.857006
vt 0.825586 0.742188
vt 0.906250 0.742188
vt 0.981818 0.303972
vt 0.985359 0.303972
vt 0.970525 0.360081
vt 0.970525 0.245262
vt 0.974065 0.245262
vt 0.974065 0.360081
vt 0.942043 0.057750
vt 0.942043 0.138414
s 0
usemtl Material
f 11/1/1 12/2/1 7/3/1 3/4/1
f 15/5/2 3/6/2 7/7/2 14/8/2
f 14/9/3 7/10/3 12/11/3 16/12/3
f 10/13/4 9/14/4 4/15/4 8/16/4
f 13/17/5 11/18/5 3/19/5 15/20/5
f 18/21/5 5/22/5 23/23/5 26/24/5
f 6/25/6 2/26/6 9/27/6 10/28/6
f 17/29/6 1/30/6 11/31/6 13/32/6
f 18/33/6 6/25/6 10/28/6 16/34/6
f 1/30/6 5/35/6 12/36/6 11/31/6
f 5/35/6 18/33/6 16/34/6 12/36/6
f 2/26/6 17/29/6 13/32/6 9/27/6
f 18/37/4 17/38/4 37/39/4 38/40/4
f 9/41/5 13/17/5 15/20/5 4/42/5
f 8/43/3 14/9/3 16/12/3 10/44/3
f 4/45/2 15/5/2 14/8/2 8/46/2
f 20/47/5 21/48/5 29/49/5 28/50/5
f 17/51/1 18/52/1 26/53/1 25/54/1
f 5/55/4 1/56/4 24/57/4 23/58/4
f 1/50/3 17/59/3 25/60/3 24/61/3
f 20/62/6 19/63/6 23/64/6 24/65/6
f 21/66/6 20/62/6 24/65/6 25/67/6
f 19/68/6 22/69/6 26/70/6 23/71/6
f 22/72/6 21/66/6 25/67/6 26/73/6
f 30/74/6 27/75/6 28/76/6 29/77/6
f 22/48/3 19/47/3 27/78/3 30/79/3
f 19/80/1 20/81/1 28/82/1 27/83/1
f 21/84/4 22/85/4 30/86/4 29/87/4
f 32/88/3 34/89/3 42/90/3 40/91/3
f 17/92/3 2/93/3 35/94/3 37/95/3
f 6/93/5 18/92/5 38/96/5 36/97/5
f 2/98/1 6/99/1 36/100/1 35/101/1
f 32/102/6 31/103/6 35/104/6 36/105/6
f 31/103/6 33/106/6 37/107/6 35/104/6
f 34/108/6 32/102/6 36/105/6 38/109/6
f 33/106/6 34/108/6 38/109/6 37/107/6
f 40/110/6 42/111/6 41/112/6 39/113/6
f 31/114/4 32/51/4 40/101/4 39/115/4
f 34/116/1 33/117/1 41/118/1 42/119/1
f 33/120/5 31/121/5 39/91/5 41/90/5
o Cube.002
v 0.500342 0.503024 -0.500000
v 0.500342 0.403024 -0.500000
v 0.500342 0.503024 0.500000
v 0.500342 0.403024 0.500000
v -1.499658 0.503024 -0.500000
v -1.499658 0.403024 -0.500000
v -1.499658 0.503024 0.500000
v -1.499658 0.403024 0.500000
vn -0.0000 1.0000 -0.0000
vn -0.0000 -0.0000 1.0000
vn -1.0000 -0.0000 -0.0000
vn -0.0000 -1.0000 -0.0000
vn 1.0000 -0.0000 -0.0000
vn -0.0000 -0.0000 -1.0000
vt 0.175251 0.826646
vt 0.175251 0.957980
vt 0.043918 0.957980
vt 0.043918 0.826646
vt 0.172824 0.952595
vt 0.041490 0.952595
vt 0.041490 0.821261
vt 0.172824 0.821261
vt 0.171345 0.956501
vt 0.040011 0.956501
vt 0.040011 0.825168
vt 0.171345 0.825168
vt 0.170396 0.827595
vt 0.170396 0.958929
vt 0.039062 0.958929
vt 0.039063 0.827595
vt 0.173773 0.959459
vt 0.042439 0.959459
vt 0.042439 0.828125
vt 0.173773 0.828125
vt 0.168918 0.958929
vt 0.037584 0.958929
vt 0.037584 0.827595
vt 0.168918 0.827595
s 0
usemtl Material
f 43/122/7 47/123/7 49/124/7 45/125/7
f 46/126/8 45/127/8 49/128/8 50/129/8
f 50/130/9 49/131/9 47/132/9 48/133/9
f 48/134/10 44/135/10 46/136/10 50/137/10
f 44/138/11 43/139/11 45/140/11 46/141/11
f 48/142/12 47/143/12 43/144/12 44/145/12
o Cube.001
v -0.896955 0.367031 -0.500000
v -0.896955 -0.260437 -0.500000
v -0.865870 0.403297 0.500000
v -0.865870 -0.296703 0.500000
v -1.434785 0.367031 -0.500000
v -1.434785 -0.260437 -0.500000
v -1.465870 0.403297 0.500000
v -1.465870 -0.296703 0.500000
v -0.865870 -0.296703 -0.500000
v -1.465870 -0.296703 -0.500000
v -0.865870 0.403297 -0.500000
v -1.465870 0.403297 -0.500000
v -0.865870 0.191569 -0.500000
v -1.465870 0.191569 0.500000
v -0.865870 0.191569 0.500000
v -1.465870 0.191569 -0.500000
v -0.896955 0.177241 -0.500000
v -1.434785 0.177241 -0.500000
v -1.427852 0.358943 -0.470599
v -0.903888 0.358943 -0.470599
v -0.903888 0.185329 -0.470599
v -1.427852 0.185329 -0.470599
v -1.434785 0.367031 -0.470599
v -0.896955 0.367031 -0.470599
v -0.896955 0.177241 -0.470599
v -1.434785 0.177241 -0.470599
v -1.427852 0.358943 -0.501534
v -0.903888 0.358943 -0.501534
v -0.903888 0.185329 -0.501534
v -1.427852 0.185329 -0.501534
v -0.903595 -0.252691 -0.479009
v -1.428145 -0.252691 -0.479009
v -0.903595 0.169495 -0.479009
v -1.428145 0.169495 -0.479009
v -0.896955 -0.260437 -0.479009
v -1.434785 -0.260437 -0.479009
v -0.896955 0.177241 -0.479009
v -1.434785 0.177241 -0.479009
v -0.903595 -0.252691 -0.505967
v -1.428145 -0.252691 -0.505967
v -0.903595 0.169495 -0.505967
v -1.428145 0.169495 -0.505967
vn -0.0000 1.0000 -0.0000
vn -0.0000 -0.0000 1.0000
vn -1.0000 -0.0000 -0.0000
vn -0.0000 -1.0000 -0.0000
vn 1.0000 -0.0000 -0.0000
vn -0.0000 -0.0000 -1.0000
vt 0.537054 0.146959
vt 0.537054 0.278293
vt 0.405720 0.278293
vt 0.405720 0.146959
vt 0.165673 0.267523
vt 0.125949 0.267523
vt 0.125949 0.136189
vt 0.165673 0.136189
vt 0.445444 0.409626
vt 0.405720 0.409626
vt 0.405720 0.278293
vt 0.445444 0.278293
vt 0.388616 0.136189
vt 0.388616 0.267523
vt 0.257283 0.267523
vt 0.257283 0.136189
vt 0.063162 0.266044
vt 0.023438 0.266044
vt 0.023438 0.134710
vt 0.063162 0.134710
vt 0.823115 0.204240
vt 0.823115 0.321966
vt 0.819254 0.321966
vt 0.819254 0.204240
vt 0.661583 0.140155
vt 0.661583 0.022429
vt 0.668388 0.015625
vt 0.668388 0.146959
vt 0.579466 0.022429
vt 0.543858 0.022429
vt 0.537054 0.015625
vt 0.576778 0.015625
vt 0.579466 0.140155
vt 0.576778 0.146959
vt 0.543858 0.140155
vt 0.537054 0.146959
vt 0.976822 0.245262
vt 0.976822 0.362988
vt 0.974065 0.362988
vt 0.974065 0.245262
vt 0.154771 0.266044
vt 0.154771 0.134710
vt 0.537054 0.409626
vt 0.257283 0.267523
vt 0.257283 0.136189
vt 0.965210 0.477678
vt 0.965210 0.362988
vt 0.969273 0.362988
vt 0.969273 0.477678
vt 0.985052 0.131753
vt 0.985052 0.249478
vt 0.981190 0.249478
vt 0.981190 0.131753
vt 0.815301 0.249478
vt 0.815301 0.285086
vt 0.811440 0.285086
vt 0.811440 0.249478
vt 0.815301 0.285086
vt 0.815301 0.249478
vt 0.819163 0.249478
vt 0.819163 0.285086
vt 0.932572 0.246780
vt 0.932572 0.361470
vt 0.931055 0.362988
vt 0.931055 0.245262
vt 0.965146 0.246780
vt 0.966663 0.245262
vt 0.965146 0.361470
vt 0.966663 0.362988
vt 0.873785 0.861028
vt 0.841211 0.861028
vt 0.841211 0.746338
vt 0.873785 0.746338
vt 0.823225 0.249478
vt 0.823225 0.282051
vt 0.819163 0.282051
vt 0.819163 0.249478
vt 0.827288 0.249478
vt 0.827288 0.282051
vt 0.977127 0.246443
vt 0.977128 0.131753
vt 0.981190 0.131753
vt 0.981190 0.246443
vt 0.970525 0.474899
vt 0.970525 0.360081
vt 0.974065 0.360081
vt 0.974065 0.474899
vt 0.829413 0.204240
vt 0.829413 0.321966
vt 0.826656 0.321966
vt 0.826656 0.204240
vt 0.957394 0.057750
vt 0.957394 0.139867
vt 0.954637 0.139867
vt 0.954637 0.057750
vt 0.960151 0.057750
vt 0.960151 0.139867
vt 0.975674 0.248025
vt 0.975674 0.133206
vt 0.977128 0.131753
vt 0.977128 0.249478
vt 0.896464 0.133206
vt 0.895011 0.131753
vt 0.896464 0.248025
vt 0.895011 0.249478
vt 0.904797 0.971825
vt 0.825586 0.971825
vt 0.825586 0.857006
vt 0.904797 0.857006
vt 0.945583 0.057750
vt 0.945583 0.136960
vt 0.942042 0.136960
vt 0.942042 0.057750
vt 0.949124 0.057750
vt 0.949124 0.136960
vt 0.823115 0.319059
vt 0.823115 0.204240
vt 0.826656 0.204240
vt 0.826656 0.319059
s 0
usemtl Material
f 61/146/13 62/147/13 57/148/13 53/149/13
f 65/150/14 53/151/14 57/152/14 64/153/14
f 64/154/15 57/155/15 62/156/15 66/157/15
f 60/158/16 59/159/16 54/160/16 58/161/16
f 63/162/17 61/163/17 53/164/17 65/165/17
f 67/166/13 68/167/13 76/168/13 75/169/13
f 56/170/18 52/171/18 59/172/18 60/173/18
f 67/174/18 51/175/18 61/176/18 63/177/18
f 68/178/18 56/170/18 60/173/18 66/179/18
f 51/175/18 55/180/18 62/181/18 61/176/18
f 55/180/18 68/178/18 66/179/18 62/181/18
f 52/171/18 67/174/18 63/177/18 59/172/18
f 52/182/13 56/183/13 86/184/13 85/185/13
f 59/186/17 63/162/17 65/165/17 54/187/17
f 58/188/15 64/154/15 66/157/15 60/147/15
f 54/189/14 65/150/14 64/153/14 58/190/14
f 71/191/16 72/192/16 80/193/16 79/194/16
f 55/195/16 51/196/16 74/197/16 73/198/16
f 51/199/15 67/200/15 75/201/15 74/202/15
f 68/203/17 55/204/17 73/205/17 76/206/17
f 70/207/18 69/208/18 73/209/18 74/210/18
f 71/211/18 70/207/18 74/210/18 75/212/18
f 69/208/18 72/213/18 76/214/18 73/209/18
f 72/213/18 71/211/18 75/212/18 76/214/18
f 80/215/18 77/216/18 78/217/18 79/218/18
f 70/219/17 71/220/17 79/221/17 78/222/17
f 72/220/15 69/219/15 77/223/15 80/224/15
f 69/225/13 70/226/13 78/227/13 77/228/13
f 84/229/13 83/230/13 91/231/13 92/232/13
f 68/233/16 67/234/16 87/235/16 88/236/16
f 67/237/15 52/238/15 85/239/15 87/240/15
f 56/238/17 68/237/17 88/241/17 86/242/17
f 82/243/18 81/244/18 85/245/18 86/246/18
f 81/244/18 83/247/18 87/248/18 85/245/18
f 84/249/18 82/243/18 86/246/18 88/250/18
f 83/247/18 84/249/18 88/250/18 87/248/18
f 90/251/18 92/252/18 91/253/18 89/254/18
f 83/255/17 81/256/17 89/257/17 91/258/17
f 82/256/15 84/255/15 92/259/15 90/260/15
f 81/261/16 82/262/16 90/263/16 89/264/16
o Cube.003
v -0.129659 0.403297 0.403024
v -0.129659 -0.296703 0.403024
v -0.129659 0.403297 0.503024
v -0.129659 -0.296703 0.503024
v -0.869659 0.403297 0.403024
v -0.869659 -0.296703 0.403024
v -0.869659 0.403297 0.503024
v -0.869659 -0.296703 0.503024
vn -0.0000 1.0000 -0.0000
vn -0.0000 -0.0000 1.0000
vn -1.0000 -0.0000 -0.0000
vn -0.0000 -1.0000 -0.0000
vn 1.0000 -0.0000 -0.0000
vn -0.0000 -0.0000 -1.0000
vt 0.668388 0.146959
vt 0.668388 0.278293
vt 0.537054 0.278293
vt 0.537054 0.146959
vt 0.286105 0.266044
vt 0.154771 0.266044
vt 0.154771 0.134710
vt 0.286105 0.134710
vt 0.417439 0.266044
vt 0.286105 0.266044
vt 0.417439 0.134710
vt 0.668388 0.278293
vt 0.668388 0.409626
vt 0.537054 0.409626
vt 0.519950 0.267523
vt 0.388616 0.267523
vt 0.388616 0.136189
vt 0.519950 0.136189
vt 0.548773 0.266044
vt 0.417439 0.266044
vt 0.417439 0.134710
vt 0.548773 0.134710
s 0
usemtl Material
f 93/265/19 97/266/19 99/267/19 95/268/19
f 96/269/20 95/270/20 99/271/20 100/272/20
f 100/273/21 99/274/21 97/272/21 98/275/21
f 98/276/22 94/277/22 96/278/22 100/267/22
f 94/279/23 93/280/23 95/281/23 96/282/23
f 98/283/24 97/284/24 93/285/24 94/286/24
o Cube.004
v 0.439740 -0.299727 -0.466389
v 0.439740 -0.499727 -0.466389
v 0.439740 -0.299727 -0.346389
v 0.439740 -0.499727 -0.346389
v 0.319740 -0.299727 -0.466389
v 0.319740 -0.499727 -0.466389
v 0.319740 -0.299727 -0.346389
v 0.319740 -0.499727 -0.346389
vn -0.0000 1.0000 -0.0000
vn -0.0000 -0.0000 1.0000
vn -1.0000 -0.0000 -0.0000
vn -0.0000 -1.0000 -0.0000
vn 1.0000 -0.0000 -0.0000
vn -0.0000 -0.0000 -1.0000
vt 0.680106 0.134710
vt 0.680106 0.266044
vt 0.548773 0.266044
vt 0.548773 0.134710
vt 0.799721 0.146959
vt 0.668388 0.146959
vt 0.668388 0.015625
vt 0.799721 0.015625
vt 0.146959 0.151284
vt 0.015625 0.151284
vt 0.015625 0.019950
vt 0.146959 0.019950
vt 0.799721 0.146959
vt 0.799721 0.278293
vt 0.668388 0.278293
vt 0.668388 0.146959
vt 0.278293 0.151284
vt 0.146959 0.151284
vt 0.146959 0.019950
vt 0.278293 0.019950
vt 0.409626 0.151284
vt 0.409626 0.019950
s 0
usemtl Material
f 101/287/25 105/288/25 107/289/25 103/290/25
f 104/291/26 103/292/26 107/293/26 108/294/26
f 108/295/27 107/296/27 105/297/27 106/298/27
f 106/299/28 102/300/28 104/301/28 108/302/28
f 102/303/29 101/304/29 103/305/29 104/306/29
f 106/307/30 105/303/30 101/306/30 102/308/30
o Cube.005
v 0.439740 -0.299727 0.346389
v 0.439740 -0.499727 0.346389
v 0.439740 -0.299727 0.466389
v 0.439740 -0.499727 0.466389
v 0.319740 -0.299727 0.346389
v 0.319740 -0.499727 0.346389
v 0.319740 -0.299727 0.466389
v 0.319740 -0.499727 0.466389
vn -0.0000 1.0000 -0.0000
vn -0.0000 -0.0000 1.0000
vn -1.0000 -0.0000 -0.0000
vn -0.0000 -1.0000 -0.0000
vn 1.0000 -0.0000 -0.0000
vn -0.0000 -0.0000 -1.0000
vt 0.799721 0.278293
vt 0.799721 0.409626
vt 0.668388 0.409626
vt 0.668388 0.278293
vt 0.540960 0.151284
vt 0.409626 0.151284
vt 0.409626 0.019950
vt 0.540960 0.019950
vt 0.651284 0.267523
vt 0.519950 0.267523
vt 0.519950 0.136189
vt 0.651284 0.136189
vt 0.672294 0.019950
vt 0.672294 0.151284
vt 0.803628 0.019950
vt 0.668388 0.540960
vt 0.799721 0.540960
vt 0.803628 0.151284
s 0
usemtl Material
f 109/309/31 113/310/31 115/311/31 111/312/31
f 112/313/32 111/314/32 115/315/32 116/316/32
f 116/317/33 115/318/33 113/319/33 114/320/33
f 114/321/34 110/322/34 112/313/34 116/316/34
f 110/323/35 109/321/35 111/324/35 112/325/35
f 114/326/36 113/322/36 109/321/36 110/323/36
o Cube.006
v -1.312396 -0.299727 0.346389
v -1.312396 -0.499727 0.346389
v -1.312396 -0.299727 0.466389
v -1.312396 -0.499727 0.466389
v -1.432396 -0.299727 0.346389
v -1.432396 -0.499727 0.346389
v -1.432396 -0.299727 0.466389
v -1.432396 -0.499727 0.466389
vn -0.0000 1.0000 -0.0000
vn -0.0000 -0.0000 1.0000
vn -1.0000 -0.0000 -0.0000
vn -0.0000 -1.0000 -0.0000
vn 1.0000 -0.0000 -0.0000
vn -0.0000 -0.0000 -1.0000
vt 0.931055 0.015625
vt 0.931055 0.146959
vt 0.799721 0.146959
vt 0.799721 0.015625
vt 0.154771 0.263086
vt 0.023438 0.263086
vt 0.023438 0.131753
vt 0.154771 0.131753
vt 0.931055 0.278293
vt 0.799721 0.278293
vt 0.799721 0.146959
vt 0.931055 0.146959
vt 0.286105 0.131753
vt 0.286105 0.263086
vt 0.154771 0.263086
vt 0.154771 0.131753
vt 0.417439 0.263086
vt 0.417439 0.131753
vt 0.931055 0.409626
vt 0.799721 0.409626
s 0
usemtl Material
f 117/327/37 121/328/37 123/329/37 119/330/37
f 120/331/38 119/332/38 123/333/38 124/334/38
f 124/335/39 123/336/39 121/337/39 122/338/39
f 122/339/40 118/340/40 120/341/40 124/342/40
f 118/343/41 117/340/41 119/339/41 120/344/41
f 122/345/42 121/346/42 117/336/42 118/335/42
o Cube.007
v -1.312396 -0.299727 -0.466389
v -1.312396 -0.499727 -0.466389
v -1.312396 -0.299727 -0.346389
v -1.312396 -0.499727 -0.346389
v -1.432396 -0.299727 -0.466389
v -1.432396 -0.499727 -0.466389
v -1.432396 -0.299727 -0.346389
v -1.432396 -0.499727 -0.346389
vn -0.0000 1.0000 -0.0000
vn -0.0000 -0.0000 1.0000
vn -1.0000 -0.0000 -0.0000
vn -0.0000 -1.0000 -0.0000
vn 1.0000 -0.0000 -0.0000
vn -0.0000 -0.0000 -1.0000
vt 0.782618 0.136189
vt 0.782618 0.267523
vt 0.651284 0.267523
vt 0.651284 0.136189
vt 0.548773 0.263086
vt 0.417439 0.263086
vt 0.417439 0.131753
vt 0.548773 0.131753
vt 0.942774 0.266044
vt 0.811440 0.266044
vt 0.811440 0.134710
vt 0.942774 0.134710
vt 0.680106 0.131753
vt 0.680106 0.263086
vt 0.934961 0.151284
vt 0.803628 0.151284
vt 0.803628 0.019950
vt 0.934961 0.019950
vt 0.811440 0.263086
vt 0.811440 0.131753
s 0
usemtl Material
f 125/347/43 129/348/43 131/349/43 127/350/43
f 128/351/44 127/352/44 131/353/44 132/354/44
f 132/355/45 131/356/45 129/357/45 130/358/45
f 130/359/46 126/360/46 128/351/46 132/354/46
f 126/361/47 125/362/47 127/363/47 128/364/47
f 130/365/48 129/360/48 125/359/48 126/366/48
