# Blender 4.3.2
# www.blender.org
mtllib myschool_trash_can.mtl
o Cylinder
v 0.000000 -0.494110 -0.208962
v 0.000000 0.099520 -0.284130
v 0.040766 -0.494110 -0.204947
v 0.055431 0.099520 -0.278670
v 0.079966 -0.494110 -0.193056
v 0.108732 0.099520 -0.262502
v 0.116093 -0.494110 -0.173745
v 0.157854 0.099520 -0.236245
v 0.147758 -0.494110 -0.147758
v 0.200910 0.099520 -0.200910
v 0.173745 -0.494110 -0.116093
v 0.236245 0.099520 -0.157854
v 0.193056 -0.494110 -0.079966
v 0.262502 0.099520 -0.108732
v 0.204947 -0.494110 -0.040766
v 0.278670 0.099520 -0.055431
v 0.208962 -0.494110 0.000000
v 0.284130 0.099520 0.000000
v 0.204947 -0.494110 0.040766
v 0.278670 0.099520 0.055431
v 0.193056 -0.494110 0.079966
v 0.262502 0.099520 0.108732
v 0.173745 -0.494110 0.116093
v 0.236245 0.099520 0.157854
v 0.147758 -0.494110 0.147758
v 0.200910 0.099520 0.200910
v 0.116093 -0.494110 0.173745
v 0.157854 0.099520 0.236245
v 0.079966 -0.494110 0.193056
v 0.108732 0.099520 0.262502
v 0.040766 -0.494110 0.204947
v 0.055431 0.099520 0.278670
v 0.000000 -0.494110 0.208962
v 0.000000 0.099520 0.284130
v -0.040766 -0.494110 0.204947
v -0.055431 0.099520 0.278670
v -0.079966 -0.494110 0.193056
v -0.108732 0.099520 0.262502
v -0.116093 -0.494110 0.173745
v -0.157854 0.099520 0.236245
v -0.147758 -0.494110 0.147758
v -0.200910 0.099520 0.200910
v -0.173745 -0.494110 0.116093
v -0.236245 0.099520 0.157854
v -0.193056 -0.494110 0.079966
v -0.262502 0.099520 0.108732
v -0.204947 -0.494110 0.040766
v -0.278670 0.099520 0.055431
v -0.208962 -0.494110 0.000000
v -0.284130 0.099520 0.000000
v -0.204947 -0.494110 -0.040766
v -0.278670 0.099520 -0.055431
v -0.193056 -0.494110 -0.079966
v -0.262502 0.099520 -0.108732
v -0.173745 -0.494110 -0.116093
v -0.236245 0.099520 -0.157854
v -0.147758 -0.494110 -0.147758
v -0.200910 0.099520 -0.200910
v -0.116093 -0.494110 -0.173745
v -0.157854 0.099520 -0.236245
v -0.079966 -0.494110 -0.193056
v -0.108732 0.099520 -0.262502
v -0.040766 -0.494110 -0.204947
v -0.055431 0.099520 -0.278670
v 0.058527 0.099520 -0.294236
v 0.000000 0.099520 -0.300000
v 0.114805 0.099520 -0.277164
v 0.166671 0.099520 -0.249441
v 0.212132 0.099520 -0.212132
v 0.249441 0.099520 -0.166671
v 0.277164 0.099520 -0.114805
v 0.294236 0.099520 -0.058527
v 0.300000 0.099520 0.000000
v 0.294236 0.099520 0.058527
v 0.277164 0.099520 0.114805
v 0.249441 0.099520 0.166671
v 0.212132 0.099520 0.212132
v 0.166671 0.099520 0.249441
v 0.114805 0.099520 0.277164
v 0.058527 0.099520 0.294236
v 0.000000 0.099520 0.300000
v -0.058527 0.099520 0.294236
v -0.114805 0.099520 0.277164
v -0.166671 0.099520 0.249441
v -0.212132 0.099520 0.212132
v -0.249441 0.099520 0.166671
v -0.277164 0.099520 0.114805
v -0.294236 0.099520 0.058527
v -0.300000 0.099520 0.000000
v -0.294236 0.099520 -0.058527
v -0.277164 0.099520 -0.114805
v -0.249441 0.099520 -0.166671
v -0.212132 0.099520 -0.212132
v -0.166671 0.099520 -0.249441
v -0.114805 0.099520 -0.277164
v -0.058527 0.099520 -0.294236
v 0.038610 -0.464868 -0.194105
v 0.000000 -0.464868 -0.197908
v 0.075736 -0.464868 -0.182843
v 0.109952 -0.464868 -0.164554
v 0.139942 -0.464868 -0.139942
v 0.164554 -0.464868 -0.109952
v 0.182843 -0.464868 -0.075736
v 0.194105 -0.464868 -0.038610
v 0.197908 -0.464868 0.000000
v 0.194105 -0.464868 0.038610
v 0.182843 -0.464868 0.075736
v 0.164554 -0.464868 0.109952
v 0.139942 -0.464868 0.139942
v 0.109952 -0.464868 0.164554
v 0.075736 -0.464868 0.182843
v 0.038610 -0.464868 0.194105
v 0.000000 -0.464868 0.197908
v -0.038610 -0.464868 0.194105
v -0.075736 -0.464868 0.182843
v -0.109952 -0.464868 0.164554
v -0.139942 -0.464868 0.139942
v -0.164554 -0.464868 0.109952
v -0.182843 -0.464868 0.075736
v -0.194105 -0.464868 0.038610
v -0.197908 -0.464868 0.000000
v -0.194105 -0.464868 -0.038610
v -0.182843 -0.464868 -0.075736
v -0.164554 -0.464868 -0.109952
v -0.139942 -0.464868 -0.139942
v -0.109952 -0.464868 -0.164554
v -0.075736 -0.464868 -0.182843
v -0.038610 -0.464868 -0.194105
vn 0.0969 -0.1509 -0.9838
vn 0.2870 -0.1509 -0.9460
vn 0.4660 -0.1509 -0.8718
vn 0.6271 -0.1509 -0.7642
vn 0.7642 -0.1509 -0.6271
vn 0.8718 -0.1509 -0.4660
vn 0.9460 -0.1509 -0.2870
vn 0.9838 -0.1509 -0.0969
vn 0.9838 -0.1509 0.0969
vn 0.9460 -0.1509 0.2870
vn 0.8718 -0.1509 0.4660
vn 0.7642 -0.1509 0.6271
vn 0.6271 -0.1509 0.7642
vn 0.4660 -0.1509 0.8718
vn 0.2870 -0.1509 0.9460
vn 0.0969 -0.1509 0.9838
vn -0.0969 -0.1509 0.9838
vn -0.2870 -0.1509 0.9460
vn -0.4660 -0.1509 0.8718
vn -0.6271 -0.1509 0.7642
vn -0.7642 -0.1509 0.6271
vn -0.8718 -0.1509 0.4660
vn -0.9460 -0.1509 0.2870
vn -0.9838 -0.1509 0.0969
vn -0.9838 -0.1509 -0.0969
vn -0.9460 -0.1509 -0.2870
vn -0.8718 -0.1509 -0.4660
vn -0.7642 -0.1509 -0.6271
vn -0.6271 -0.1509 -0.7642
vn -0.4660 -0.1509 -0.8718
vn 0.0969 0.1503 -0.9839
vn -0.2870 -0.1509 -0.9460
vn -0.0969 -0.1509 -0.9838
vn -0.0000 -1.0000 -0.0000
vn -0.0000 1.0000 -0.0000
vn -0.6272 0.1503 0.7642
vn 0.2870 0.1503 0.9461
vn 0.2870 0.1503 -0.9461
vn -0.7642 0.1503 0.6272
vn 0.0969 0.1503 0.9839
vn 0.4660 0.1503 -0.8719
vn -0.8719 0.1503 0.4660
vn 0.6272 0.1503 -0.7642
vn -0.9461 0.1503 0.2870
vn 0.7642 0.1503 -0.6272
vn -0.9839 0.1503 0.0969
vn 0.8719 0.1503 -0.4660
vn -0.9839 0.1503 -0.0969
vn 0.9461 0.1503 -0.2870
vn -0.9461 0.1503 -0.2870
vn 0.9839 0.1503 -0.0969
vn -0.8719 0.1503 -0.4660
vn 0.9839 0.1503 0.0969
vn -0.7642 0.1503 -0.6272
vn 0.9461 0.1503 0.2870
vn -0.6272 0.1503 -0.7642
vn 0.8719 0.1503 0.4660
vn -0.4660 0.1503 -0.8719
vn -0.0969 0.1503 0.9839
vn 0.7642 0.1503 0.6272
vn -0.2870 0.1503 -0.9461
vn -0.2870 0.1503 0.9461
vn 0.6272 0.1503 0.7642
vn -0.0969 0.1503 -0.9839
vn -0.4660 0.1503 0.8719
vn 0.4660 0.1503 0.8719
vt 1.000000 0.500000
vt 1.000000 1.000000
vt 0.968750 1.000000
vt 0.968750 0.500000
vt 0.937500 1.000000
vt 0.937500 0.500000
vt 0.906250 1.000000
vt 0.906250 0.500000
vt 0.875000 1.000000
vt 0.875000 0.500000
vt 0.843750 1.000000
vt 0.843750 0.500000
vt 0.812500 1.000000
vt 0.812500 0.500000
vt 0.781250 1.000000
vt 0.781250 0.500000
vt 0.750000 1.000000
vt 0.750000 0.500000
vt 0.718750 1.000000
vt 0.718750 0.500000
vt 0.687500 1.000000
vt 0.687500 0.500000
vt 0.656250 1.000000
vt 0.656250 0.500000
vt 0.625000 1.000000
vt 0.625000 0.500000
vt 0.593750 1.000000
vt 0.593750 0.500000
vt 0.562500 1.000000
vt 0.562500 0.500000
vt 0.531250 1.000000
vt 0.531250 0.500000
vt 0.500000 1.000000
vt 0.500000 0.500000
vt 0.468750 1.000000
vt 0.468750 0.500000
vt 0.437500 1.000000
vt 0.437500 0.500000
vt 0.406250 1.000000
vt 0.406250 0.500000
vt 0.375000 1.000000
vt 0.375000 0.500000
vt 0.343750 1.000000
vt 0.343750 0.500000
vt 0.312500 1.000000
vt 0.312500 0.500000
vt 0.281250 1.000000
vt 0.281250 0.500000
vt 0.250000 1.000000
vt 0.250000 0.500000
vt 0.218750 1.000000
vt 0.218750 0.500000
vt 0.187500 1.000000
vt 0.187500 0.500000
vt 0.156250 1.000000
vt 0.156250 0.500000
vt 0.125000 1.000000
vt 0.125000 0.500000
vt 0.093750 1.000000
vt 0.093750 0.500000
vt 0.062500 1.000000
vt 0.062500 0.500000
vt 0.205655 0.027064
vt 0.250000 0.022696
vt 0.031250 1.000000
vt 0.031250 0.500000
vt 0.000000 1.000000
vt 0.000000 0.500000
vt 0.750000 0.490000
vt 0.796822 0.485388
vt 0.841844 0.471731
vt 0.883337 0.449553
vt 0.919706 0.419706
vt 0.949553 0.383337
vt 0.971731 0.341844
vt 0.985388 0.296822
vt 0.990000 0.250000
vt 0.985388 0.203178
vt 0.971731 0.158156
vt 0.949553 0.116663
vt 0.919706 0.080294
vt 0.883337 0.050447
vt 0.841844 0.028269
vt 0.796822 0.014612
vt 0.750000 0.010000
vt 0.703178 0.014612
vt 0.658156 0.028269
vt 0.616663 0.050447
vt 0.580294 0.080294
vt 0.550447 0.116663
vt 0.528269 0.158156
vt 0.514612 0.203178
vt 0.510000 0.250000
vt 0.514612 0.296822
vt 0.528269 0.341844
vt 0.550447 0.383337
vt 0.580294 0.419706
vt 0.616663 0.449553
vt 0.658156 0.471731
vt 0.703178 0.485388
vt 0.250000 0.477304
vt 0.294345 0.472936
vt 0.296822 0.485388
vt 0.250000 0.490000
vt 0.336985 0.460001
vt 0.341844 0.471731
vt 0.376283 0.438996
vt 0.383337 0.449553
vt 0.410728 0.410728
vt 0.419706 0.419706
vt 0.438996 0.376283
vt 0.449553 0.383337
vt 0.460001 0.336985
vt 0.471731 0.341844
vt 0.472936 0.294345
vt 0.485388 0.296822
vt 0.477304 0.250000
vt 0.490000 0.250000
vt 0.472936 0.205655
vt 0.485388 0.203178
vt 0.460001 0.163015
vt 0.471731 0.158156
vt 0.438996 0.123717
vt 0.449553 0.116663
vt 0.410728 0.089272
vt 0.419706 0.080294
vt 0.376283 0.061004
vt 0.383337 0.050447
vt 0.336985 0.039999
vt 0.341844 0.028269
vt 0.294345 0.027064
vt 0.296822 0.014612
vt 0.250000 0.010000
vt 0.203178 0.014612
vt 0.163015 0.039999
vt 0.158156 0.028269
vt 0.123717 0.061004
vt 0.116663 0.050447
vt 0.089272 0.089272
vt 0.080294 0.080294
vt 0.061004 0.123717
vt 0.050447 0.116663
vt 0.039999 0.163015
vt 0.028269 0.158156
vt 0.027064 0.205655
vt 0.014612 0.203178
vt 0.022696 0.250000
vt 0.010000 0.250000
vt 0.027064 0.294345
vt 0.014612 0.296822
vt 0.039999 0.336985
vt 0.028269 0.341844
vt 0.061004 0.376283
vt 0.050447 0.383337
vt 0.089272 0.410728
vt 0.080294 0.419706
vt 0.123717 0.438996
vt 0.116663 0.449553
vt 0.163015 0.460001
vt 0.158156 0.471731
vt 0.205655 0.472936
vt 0.203178 0.485388
s 0
f 1/1/1 66/2/1 65/3/1 3/4/1
f 3/4/2 65/3/2 67/5/2 5/6/2
f 5/6/3 67/5/3 68/7/3 7/8/3
f 7/8/4 68/7/4 69/9/4 9/10/4
f 9/10/5 69/9/5 70/11/5 11/12/5
f 11/12/6 70/11/6 71/13/6 13/14/6
f 13/14/7 71/13/7 72/15/7 15/16/7
f 15/16/8 72/15/8 73/17/8 17/18/8
f 17/18/9 73/17/9 74/19/9 19/20/9
f 19/20/10 74/19/10 75/21/10 21/22/10
f 21/22/11 75/21/11 76/23/11 23/24/11
f 23/24/12 76/23/12 77/25/12 25/26/12
f 25/26/13 77/25/13 78/27/13 27/28/13
f 27/28/14 78/27/14 79/29/14 29/30/14
f 29/30/15 79/29/15 80/31/15 31/32/15
f 31/32/16 80/31/16 81/33/16 33/34/16
f 33/34/17 81/33/17 82/35/17 35/36/17
f 35/36/18 82/35/18 83/37/18 37/38/18
f 37/38/19 83/37/19 84/39/19 39/40/19
f 39/40/20 84/39/20 85/41/20 41/42/20
f 41/42/21 85/41/21 86/43/21 43/44/21
f 43/44/22 86/43/22 87/45/22 45/46/22
f 45/46/23 87/45/23 88/47/23 47/48/23
f 47/48/24 88/47/24 89/49/24 49/50/24
f 49/50/25 89/49/25 90/51/25 51/52/25
f 51/52/26 90/51/26 91/53/26 53/54/26
f 53/54/27 91/53/27 92/55/27 55/56/27
f 55/56/28 92/55/28 93/57/28 57/58/28
f 57/58/29 93/57/29 94/59/29 59/60/29
f 59/60/30 94/59/30 95/61/30 61/62/30
f 36/63/31 34/64/31 113/64/31 114/63/31
f 61/62/32 95/61/32 96/65/32 63/66/32
f 63/66/33 96/65/33 66/67/33 1/68/33
f 1/69/34 3/70/34 5/71/34 7/72/34 9/73/34 11/74/34 13/75/34 15/76/34 17/77/34 19/78/34 21/79/34 23/80/34 25/81/34 27/82/34 29/83/34 31/84/34 33/85/34 35/86/34 37/87/34 39/88/34 41/89/34 43/90/34 45/91/34 47/92/34 49/93/34 51/94/34 53/95/34 55/96/34 57/97/34 59/98/34 61/99/34 63/100/34
f 2/101/35 4/102/35 65/103/35 66/104/35
f 4/102/35 6/105/35 67/106/35 65/103/35
f 6/105/35 8/107/35 68/108/35 67/106/35
f 8/107/35 10/109/35 69/110/35 68/108/35
f 10/109/35 12/111/35 70/112/35 69/110/35
f 12/111/35 14/113/35 71/114/35 70/112/35
f 14/113/35 16/115/35 72/116/35 71/114/35
f 16/115/35 18/117/35 73/118/35 72/116/35
f 18/117/35 20/119/35 74/120/35 73/118/35
f 20/119/35 22/121/35 75/122/35 74/120/35
f 22/121/35 24/123/35 76/124/35 75/122/35
f 24/123/35 26/125/35 77/126/35 76/124/35
f 26/125/35 28/127/35 78/128/35 77/126/35
f 28/127/35 30/129/35 79/130/35 78/128/35
f 30/129/35 32/131/35 80/132/35 79/130/35
f 32/131/35 34/64/35 81/133/35 80/132/35
f 34/64/35 36/63/35 82/134/35 81/133/35
f 36/63/35 38/135/35 83/136/35 82/134/35
f 38/135/35 40/137/35 84/138/35 83/136/35
f 40/137/35 42/139/35 85/140/35 84/138/35
f 42/139/35 44/141/35 86/142/35 85/140/35
f 44/141/35 46/143/35 87/144/35 86/142/35
f 46/143/35 48/145/35 88/146/35 87/144/35
f 48/145/35 50/147/35 89/148/35 88/146/35
f 50/147/35 52/149/35 90/150/35 89/148/35
f 52/149/35 54/151/35 91/152/35 90/150/35
f 54/151/35 56/153/35 92/154/35 91/152/35
f 56/153/35 58/155/35 93/156/35 92/154/35
f 58/155/35 60/157/35 94/158/35 93/156/35
f 60/157/35 62/159/35 95/160/35 94/158/35
f 62/159/35 64/161/35 96/162/35 95/160/35
f 64/161/35 2/101/35 66/104/35 96/162/35
f 97/102/35 98/101/35 128/161/35 127/159/35 126/157/35 125/155/35 124/153/35 123/151/35 122/149/35 121/147/35 120/145/35 119/143/35 118/141/35 117/139/35 116/137/35 115/135/35 114/63/35 113/64/35 112/131/35 111/129/35 110/127/35 109/125/35 108/123/35 107/121/35 106/119/35 105/117/35 104/115/35 103/113/35 102/111/35 101/109/35 100/107/35 99/105/35
f 10/109/36 8/107/36 100/107/36 101/109/36
f 64/161/37 62/159/37 127/159/37 128/161/37
f 38/135/38 36/63/38 114/63/38 115/135/38
f 12/111/39 10/109/39 101/109/39 102/111/39
f 2/101/40 64/161/40 128/161/40 98/101/40
f 40/137/41 38/135/41 115/135/41 116/137/41
f 14/113/42 12/111/42 102/111/42 103/113/42
f 42/139/43 40/137/43 116/137/43 117/139/43
f 16/115/44 14/113/44 103/113/44 104/115/44
f 44/141/45 42/139/45 117/139/45 118/141/45
f 18/117/46 16/115/46 104/115/46 105/117/46
f 46/143/47 44/141/47 118/141/47 119/143/47
f 20/119/48 18/117/48 105/117/48 106/119/48
f 48/145/49 46/143/49 119/143/49 120/145/49
f 22/121/50 20/119/50 106/119/50 107/121/50
f 50/147/51 48/145/51 120/145/51 121/147/51
f 24/123/52 22/121/52 107/121/52 108/123/52
f 52/149/53 50/147/53 121/147/53 122/149/53
f 26/125/54 24/123/54 108/123/54 109/125/54
f 54/151/55 52/149/55 122/149/55 123/151/55
f 28/127/56 26/125/56 109/125/56 110/127/56
f 56/153/57 54/151/57 123/151/57 124/153/57
f 30/129/58 28/127/58 110/127/58 111/129/58
f 4/102/59 2/101/59 98/101/59 97/102/59
f 58/155/60 56/153/60 124/153/60 125/155/60
f 32/131/61 30/129/61 111/129/61 112/131/61
f 6/105/62 4/102/62 97/102/62 99/105/62
f 60/157/63 58/155/63 125/155/63 126/157/63
f 34/64/64 32/131/64 112/131/64 113/64/64
f 8/107/65 6/105/65 99/105/65 100/107/65
f 62/159/66 60/157/66 126/157/66 127/159/66
