# Blender 4.3.2
# www.blender.org
mtllib myschool_ceiling.mtl
o Cube
v 0.500000 0.500000 -0.500000
v 0.487184 -0.500000 -0.487184
v 0.500000 0.500000 0.500000
v 0.487184 -0.500000 0.487184
v -0.500000 0.500000 -0.500000
v -0.487184 -0.500000 -0.487184
v -0.500000 0.500000 0.500000
v -0.487184 -0.500000 0.487184
v -0.500000 -0.500000 -0.500000
v -0.500000 -0.500000 0.500000
v 0.500000 -0.500000 -0.500000
v 0.500000 -0.500000 0.500000
v -0.487184 -0.491227 -0.487184
v -0.487184 -0.491227 0.487184
v 0.487184 -0.491227 -0.487184
v 0.487184 -0.491227 0.487184
v -0.011050 -0.500000 -0.500000
v -0.011050 0.500000 0.500000
v -0.011050 -0.500000 0.500000
v -0.011050 0.500000 -0.500000
v -0.010767 -0.500000 -0.487184
v -0.010767 -0.500000 0.487184
v -0.010767 -0.491227 -0.487184
v -0.010767 -0.491227 0.487184
v 0.010931 -0.500000 0.500000
v 0.010931 0.500000 -0.500000
v 0.010651 -0.500000 0.487184
v 0.010651 -0.491227 0.487184
v 0.010931 -0.500000 -0.500000
v 0.010931 0.500000 0.500000
v 0.010651 -0.500000 -0.487184
v 0.010651 -0.491227 -0.487184
v 0.010651 -0.498970 -0.487184
v -0.010767 -0.498970 -0.487184
v -0.010767 -0.498970 0.487184
v 0.010651 -0.498970 0.487184
vn -0.0000 1.0000 -0.0000
vn -0.0000 -0.0000 1.0000
vn -1.0000 -0.0000 -0.0000
vn -0.0000 -0.0000 -1.0000
vn 1.0000 -0.0000 -0.0000
vn -0.0000 -1.0000 -0.0000
vt 0.501124 0.309431
vt 0.501123 0.515820
vt 0.006570 0.515820
vt 0.006570 0.309431
vt 0.352865 0.808817
vt 0.019531 0.808817
vt 0.019531 0.645833
vt 0.352865 0.645833
vt 0.358073 0.966146
vt 0.024740 0.966146
vt 0.024740 0.632812
vt 0.358073 0.632813
vt 0.086248 0.818327
vt 0.086248 0.977133
vt 0.083324 0.977133
vt 0.083324 0.818327
vt 0.358073 0.979167
vt 0.024740 0.979167
vt 0.024740 0.645833
vt 0.358073 0.645833
vt 0.352865 0.810158
vt 0.019531 0.810158
vt 0.019531 0.647135
vt 0.352865 0.647135
vt 0.349895 0.651407
vt 0.025105 0.651407
vt 0.020833 0.647135
vt 0.354167 0.647135
vt 0.349895 0.810213
vt 0.354167 0.810119
vt 0.025105 0.817352
vt 0.025105 0.976197
vt 0.020833 0.980469
vt 0.020833 0.817446
vt 0.349895 0.976197
vt 0.354167 0.980469
vt 0.950511 0.352133
vt 0.791667 0.352133
vt 0.791667 0.027344
vt 0.950511 0.027344
vt 0.191717 0.641196
vt 0.191717 0.965985
vt 0.188792 0.965985
vt 0.188792 0.641196
vt 0.254217 0.649579
vt 0.254217 0.974368
vt 0.251292 0.974368
vt 0.251292 0.649579
vt 0.089172 0.818289
vt 0.089172 0.977133
vt 0.086248 0.818289
vt 0.089172 0.652344
vt 0.089172 0.811150
vt 0.086248 0.811150
vt 0.086248 0.652344
vt 0.950472 0.676923
vt 0.791667 0.676923
vt 0.791667 0.352133
vt 0.950472 0.352133
vt 0.025105 0.810213
vt 0.020833 0.810119
vt 0.349895 0.817352
vt 0.354167 0.817446
vt 0.352865 0.980469
vt 0.019531 0.980469
vt 0.019531 0.817485
vt 0.352865 0.817485
vt 0.086248 0.811188
vt 0.083324 0.811188
vt 0.352865 0.816144
vt 0.019531 0.816144
vt 0.501124 0.221494
vt 0.006570 0.221494
vt 0.501124 0.008864
vt 0.006570 0.008864
vt 0.352865 0.979167
vt 0.019531 0.979167
vt 0.086248 0.652344
vt 0.083324 0.652344
vt 0.301092 0.731507
vt 0.301092 0.724368
vt 0.303673 0.724368
vt 0.303673 0.731507
vt 0.361306 0.954837
vt 0.354167 0.954837
vt 0.354167 0.630048
vt 0.361306 0.630048
vt 0.301092 0.738646
vt 0.301092 0.731507
vt 0.303673 0.731507
vt 0.303673 0.738646
vt 0.152654 0.965985
vt 0.152654 0.641196
vt 0.155235 0.641196
vt 0.155235 0.965985
vt 0.254217 0.974368
vt 0.254217 0.649579
vt 0.256798 0.649579
vt 0.256798 0.974368
s 0
usemtl Material
f 20/1/1 5/2/1 7/3/1 18/4/1
f 19/5/2 18/6/2 7/7/2 10/8/2
f 10/9/3 7/10/3 5/11/3 9/12/3
f 22/13/4 8/14/4 14/15/4 24/16/4
f 11/17/5 1/18/5 3/19/5 12/20/5
f 29/21/4 26/22/4 1/23/4 11/24/4
f 6/25/6 8/26/6 10/27/6 9/28/6
f 21/29/6 6/25/6 9/28/6 17/30/6
f 27/31/6 4/32/6 12/33/6 25/34/6
f 4/32/6 2/35/6 11/36/6 12/33/6
f 32/37/6 15/38/6 16/39/6 28/40/6
f 8/41/5 6/42/5 13/43/5 14/44/5
f 2/45/3 4/46/3 16/47/3 15/48/3
f 31/49/2 2/50/2 15/14/2 32/51/2
f 6/52/2 21/53/2 23/54/2 13/55/2
f 13/56/6 23/57/6 24/58/6 14/59/6
f 8/26/6 22/60/6 19/61/6 10/27/6
f 31/62/6 21/29/6 17/30/6 29/63/6
f 9/64/4 5/65/4 20/66/4 17/67/4
f 27/68/4 22/13/4 24/16/4 28/69/4
f 25/70/2 30/71/2 18/6/2 19/5/2
f 26/72/1 20/1/1 18/4/1 30/73/1
f 1/74/1 26/72/1 30/73/1 3/75/1
f 12/76/2 3/77/2 30/71/2 25/70/2
f 4/78/4 27/68/4 28/69/4 16/79/4
f 2/35/6 31/62/6 29/63/6 11/36/6
f 21/53/2 31/49/2 32/51/2 23/54/2
f 28/80/2 24/81/2 35/82/2 36/83/2
f 22/60/6 27/31/6 25/34/6 19/61/6
f 17/67/4 20/66/4 26/22/4 29/21/4
f 34/84/6 33/85/6 36/86/6 35/87/6
f 23/88/4 32/89/4 33/90/4 34/91/4
f 24/92/3 23/93/3 34/94/3 35/95/3
f 32/96/5 28/97/5 36/98/5 33/99/5
